<svg width="16" height="16" viewBox="0 0 16 16" fill="none" xmlns="http://www.w3.org/2000/svg">
<path d="M12.5718 6.28589H3.42899C2.79781 6.28589 2.28613 6.79756 2.28613 7.42875V14.2859C2.28613 14.9171 2.79781 15.4287 3.42899 15.4287H12.5718C13.203 15.4287 13.7147 14.9171 13.7147 14.2859V7.42875C13.7147 6.79756 13.203 6.28589 12.5718 6.28589Z" stroke="#000001" stroke-linecap="round" stroke-linejoin="round"/>
<path d="M12 6.28582V4.57153C12 3.51067 11.5786 2.49325 10.8284 1.74311C10.0783 0.99296 9.06087 0.571533 8 0.571533C6.93913 0.571533 5.92172 0.99296 5.17157 1.74311C4.42143 2.49325 4 3.51067 4 4.57153V6.28582" stroke="#000001" stroke-linecap="round" stroke-linejoin="round"/>
<path d="M8.00014 11.4287C8.31573 11.4287 8.57157 11.1729 8.57157 10.8573C8.57157 10.5417 8.31573 10.2859 8.00014 10.2859C7.68455 10.2859 7.42871 10.5417 7.42871 10.8573C7.42871 11.1729 7.68455 11.4287 8.00014 11.4287Z" stroke="#000001" stroke-linecap="round" stroke-linejoin="round"/>
</svg>
