<svg width="13" height="13" viewBox="0 0 13 13" fill="none" xmlns="http://www.w3.org/2000/svg">
<g clip-path="url(#clip0_458_5911)">
<path d="M8.82101 9.75007V11.6072C8.82101 11.8535 8.72318 12.0897 8.54904 12.2638C8.3749 12.438 8.13871 12.5358 7.89244 12.5358H1.39244C1.14617 12.5358 0.90998 12.438 0.735839 12.2638C0.561699 12.0897 0.463867 11.8535 0.463867 11.6072V1.39293C0.463867 1.14665 0.561699 0.910469 0.735839 0.736328C0.90998 0.562187 1.14617 0.464355 1.39244 0.464355H7.89244C8.13871 0.464355 8.3749 0.562187 8.54904 0.736328C8.72318 0.910469 8.82101 1.14665 8.82101 1.39293V3.25007" stroke="#000001" stroke-linecap="round" stroke-linejoin="round"/>
<path d="M6.03516 6.5H12.5352" stroke="#000001" stroke-linecap="round" stroke-linejoin="round"/>
<path d="M10.6777 4.64282L12.5349 6.49997L10.6777 8.35711" stroke="#000001" stroke-linecap="round" stroke-linejoin="round"/>
</g>
<defs>
<clipPath id="clip0_458_5911">
<rect width="13" height="13" fill="white"/>
</clipPath>
</defs>
</svg>
