<svg width="13" height="13" viewBox="0 0 13 13" fill="none" xmlns="http://www.w3.org/2000/svg">
<g clip-path="url(#clip0_458_5916)">
<path d="M9.33217 6.49997C9.3321 7.04894 9.16982 7.58565 8.86573 8.04269C8.56163 8.49974 8.12927 8.85675 7.62295 9.06889C7.11663 9.28103 6.55891 9.33884 6.01984 9.23507C5.48077 9.13129 4.98438 8.87055 4.59301 8.48559C4.20163 8.10063 3.93272 7.60862 3.82005 7.07134C3.70738 6.53406 3.75596 5.97546 3.9597 5.4657C4.16345 4.95594 4.51326 4.51774 4.96522 4.20613C5.41718 3.89453 5.95114 3.7234 6.50003 3.71425C6.86974 3.70809 7.23698 3.77559 7.58034 3.91283C7.92369 4.05006 8.23629 4.25428 8.49991 4.51357C8.76352 4.77287 8.97288 5.08205 9.11577 5.42309C9.25866 5.76413 9.33222 6.1302 9.33217 6.49997V6.49997Z" stroke="#000001" stroke-linecap="round" stroke-linejoin="round"/>
<path d="M9.33262 6.50007V7.70721C9.33262 10.9479 14.4119 7.89293 11.7469 3.4915C11.2103 2.57504 10.4444 1.81402 9.5245 1.28326C8.60463 0.752508 7.56246 0.470289 6.50047 0.464355C5.60827 0.467111 4.72777 0.667633 3.92236 1.05149C3.11695 1.43534 2.40665 1.99298 1.8426 2.68427C1.27855 3.37556 0.874771 4.1833 0.660328 5.04935C0.445886 5.91541 0.426114 6.81823 0.602436 7.69284C0.778757 8.56745 1.14679 9.3921 1.68003 10.1074C2.21328 10.8227 2.89848 11.4109 3.68632 11.8297C4.47415 12.2484 5.34502 12.4873 6.23625 12.5291C7.12748 12.5709 8.01689 12.4146 8.84047 12.0715" stroke="#000001" stroke-linecap="round" stroke-linejoin="round"/>
</g>
<defs>
<clipPath id="clip0_458_5916">
<rect width="13" height="13" fill="white"/>
</clipPath>
</defs>
</svg>
