<svg width="129" height="129" viewBox="0 0 129 129" fill="none" xmlns="http://www.w3.org/2000/svg">
<path d="M64.5006 73.7143C77.2228 73.7143 87.5363 63.4008 87.5363 50.6785C87.5363 37.9563 77.2228 27.6428 64.5006 27.6428C51.7783 27.6428 41.4648 37.9563 41.4648 50.6785C41.4648 63.4008 51.7783 73.7143 64.5006 73.7143Z" stroke="#000001" stroke-linecap="round" stroke-linejoin="round"/>
<path d="M25.1553 109.65C29.2671 102.901 35.046 97.3227 41.9364 93.452C48.8268 89.5814 56.5971 87.5483 64.5003 87.5483C72.4034 87.5483 80.1737 89.5814 87.0642 93.452C93.9546 97.3227 99.7335 102.901 103.845 109.65" stroke="#000001" stroke-linecap="round" stroke-linejoin="round"/>
<path d="M64.5003 124.393C97.5782 124.393 124.393 97.5779 124.393 64.5C124.393 31.4221 97.5782 4.60718 64.5003 4.60718C31.4224 4.60718 4.60742 31.4221 4.60742 64.5C4.60742 97.5779 31.4224 124.393 64.5003 124.393Z" stroke="#000001" stroke-linecap="round" stroke-linejoin="round"/>
</svg>
