<svg width="17" height="17" viewBox="0 0 17 17" fill="none" xmlns="http://www.w3.org/2000/svg">
<g clip-path="url(#clip0_453_3305)">
<path d="M8.50056 9.71401C10.1771 9.71401 11.5363 8.35487 11.5363 6.67829C11.5363 5.00171 10.1771 3.64258 8.50056 3.64258C6.82398 3.64258 5.46484 5.00171 5.46484 6.67829C5.46484 8.35487 6.82398 9.71401 8.50056 9.71401Z" stroke="#007AFF" stroke-linecap="round" stroke-linejoin="round"/>
<path d="M3.31543 14.4497C3.85729 13.5603 4.61885 12.8252 5.5269 12.3151C6.43494 11.805 7.45893 11.5371 8.50043 11.5371C9.54193 11.5371 10.5659 11.805 11.474 12.3151C12.382 12.8252 13.1436 13.5603 13.6854 14.4497" stroke="#007AFF" stroke-linecap="round" stroke-linejoin="round"/>
<path d="M8.50028 16.3926C12.8594 16.3926 16.3931 12.8589 16.3931 8.49979C16.3931 4.14069 12.8594 0.606934 8.50028 0.606934C4.14117 0.606934 0.607422 4.14069 0.607422 8.49979C0.607422 12.8589 4.14117 16.3926 8.50028 16.3926Z" stroke="#007AFF" stroke-linecap="round" stroke-linejoin="round"/>
</g>
<defs>
<clipPath id="clip0_453_3305">
<rect width="17" height="17" fill="white"/>
</clipPath>
</defs>
</svg>
