<svg width="36" height="36" viewBox="0 0 36 36" fill="none" xmlns="http://www.w3.org/2000/svg">
<path d="M33.9148 11.6186L23.7135 10.136L19.1532 0.890883C19.0287 0.637758 18.8238 0.432847 18.5706 0.308294C17.9358 -0.005099 17.1644 0.256062 16.847 0.890883L12.2867 10.136L2.08538 11.6186C1.80413 11.6587 1.54699 11.7913 1.35011 11.9922C1.1121 12.2369 0.980944 12.566 0.985465 12.9073C0.989985 13.2485 1.12981 13.5741 1.37422 13.8123L8.75502 21.0083L7.01127 31.1695C6.97038 31.4058 6.99654 31.6489 7.08677 31.8712C7.17701 32.0934 7.32772 32.286 7.52181 32.4269C7.71591 32.5679 7.94561 32.6517 8.18489 32.6687C8.42416 32.6858 8.66343 32.6355 8.87556 32.5235L18.0001 27.7262L27.1247 32.5235C27.3738 32.6561 27.6631 32.7003 27.9403 32.652C28.6394 32.5315 29.1095 31.8686 28.989 31.1695L27.2452 21.0083L34.626 13.8123C34.8269 13.6154 34.9595 13.3583 34.9997 13.077C35.1081 12.3739 34.618 11.723 33.9148 11.6186ZM24.1394 19.9958L25.5898 28.4453L18.0001 24.4596L10.4104 28.4494L11.8608 19.9998L5.72154 14.0132L14.2073 12.7797L18.0001 5.09356L21.793 12.7797L30.2787 14.0132L24.1394 19.9958Z" fill="#3B82F6" fill-opacity="0.85"/>
</svg>
