<svg width="18" height="18" viewBox="0 0 18 18" fill="none" xmlns="http://www.w3.org/2000/svg">
<g clip-path="url(#clip0_453_1737)">
<path d="M9 10.9287V17.3573" stroke="#007AFF" stroke-linecap="round" stroke-linejoin="round"/>
<path d="M5.78516 17.3574H12.2137" stroke="#007AFF" stroke-linecap="round" stroke-linejoin="round"/>
<path d="M4.49972 7.07157C3.47674 7.07157 2.49566 6.66519 1.77231 5.94184C1.04895 5.21848 0.642578 4.2374 0.642578 3.21443V1.92871H5.14258V7.07157H4.49972Z" stroke="#007AFF" stroke-linecap="round" stroke-linejoin="round"/>
<path d="M13.4993 7.07157C14.5223 7.07157 15.5034 6.66519 16.2267 5.94184C16.9501 5.21848 17.3564 4.2374 17.3564 3.21443V1.92871H12.8564V7.07157H13.4993Z" stroke="#007AFF" stroke-linecap="round" stroke-linejoin="round"/>
<path d="M12.8569 7.07164C12.8569 8.09462 12.4505 9.07569 11.7271 9.79905C11.0038 10.5224 10.0227 10.9288 8.99972 10.9288C7.97674 10.9288 6.99566 10.5224 6.27231 9.79905C5.54895 9.07569 5.14258 8.09462 5.14258 7.07164V0.643066H12.8569V7.07164Z" stroke="#007AFF" stroke-linecap="round" stroke-linejoin="round"/>
</g>
<defs>
<clipPath id="clip0_453_1737">
<rect width="18" height="18" fill="white"/>
</clipPath>
</defs>
</svg>
