<svg width="19" height="19" viewBox="0 0 19 19" fill="none" xmlns="http://www.w3.org/2000/svg">
<path d="M16.847 14.8327C16.447 13.8852 15.8665 13.0245 15.1379 12.2987C14.4115 11.5707 13.551 10.9903 12.6039 10.5895C12.5954 10.5853 12.5869 10.5831 12.5784 10.5789C13.8995 9.62466 14.7583 8.07031 14.7583 6.31662C14.7583 3.41149 12.4045 1.05769 9.49939 1.05769C6.59426 1.05769 4.24046 3.41149 4.24046 6.31662C4.24046 8.07031 5.09928 9.62466 6.42037 10.581C6.41189 10.5853 6.40341 10.5874 6.39493 10.5916C5.44493 10.9924 4.59247 11.5671 3.86089 12.3008C3.13293 13.0272 2.55252 13.8877 2.15173 14.8348C1.758 15.762 1.54565 16.7561 1.52618 17.7633C1.52561 17.7859 1.52958 17.8084 1.53785 17.8295C1.54612 17.8506 1.55853 17.8698 1.57434 17.886C1.59015 17.9022 1.60904 17.9151 1.6299 17.9239C1.65077 17.9326 1.67318 17.9372 1.69582 17.9372H2.96814C3.06144 17.9372 3.13566 17.8629 3.13778 17.7718C3.18019 16.1347 3.83756 14.6016 4.99961 13.4395C6.20196 12.2372 7.79872 11.5756 9.49939 11.5756C11.2001 11.5756 12.7968 12.2372 13.9992 13.4395C15.1612 14.6016 15.8186 16.1347 15.861 17.7718C15.8631 17.8651 15.9373 17.9372 16.0306 17.9372H17.303C17.3256 17.9372 17.348 17.9326 17.3689 17.9239C17.3897 17.9151 17.4086 17.9022 17.4244 17.886C17.4403 17.8698 17.4527 17.8506 17.4609 17.8295C17.4692 17.8084 17.4732 17.7859 17.4726 17.7633C17.4514 16.7497 17.2415 15.7636 16.847 14.8327ZM9.49939 9.96394C8.52606 9.96394 7.60999 9.58437 6.92082 8.89519C6.23165 8.20602 5.85207 7.28995 5.85207 6.31662C5.85207 5.3433 6.23165 4.42723 6.92082 3.73805C7.60999 3.04888 8.52606 2.6693 9.49939 2.6693C10.4727 2.6693 11.3888 3.04888 12.078 3.73805C12.7671 4.42723 13.1467 5.3433 13.1467 6.31662C13.1467 7.28995 12.7671 8.20602 12.078 8.89519C11.3888 9.58437 10.4727 9.96394 9.49939 9.96394Z" fill="#2563EB" fill-opacity="0.85"/>
</svg>
