<svg width="21" height="14" viewBox="0 0 21 14" fill="none" xmlns="http://www.w3.org/2000/svg">
<path d="M1 7.11262H4.20077C4.33554 7.11105 4.46747 7.07333 4.58305 7.00332C4.69862 6.93332 4.79367 6.83354 4.85846 6.71422L7.48923 1.4023C7.55407 1.27004 7.65744 1.16099 7.78545 1.08977C7.91347 1.01856 8.06001 0.988591 8.20538 1.0039C8.35018 1.01378 8.48838 1.06876 8.60094 1.16125C8.7135 1.25374 8.79487 1.3792 8.83385 1.52034L12.0931 12.4688C12.1358 12.6173 12.2238 12.7485 12.3444 12.8438C12.4651 12.9391 12.6123 12.9938 12.7654 13C12.9088 12.9952 13.0477 12.9479 13.1646 12.8639C13.2816 12.7799 13.3715 12.663 13.4231 12.5278L15.4254 7.58479C15.4805 7.44613 15.5753 7.32718 15.6976 7.24309C15.82 7.159 15.9643 7.11358 16.1123 7.11262H20" stroke="#007AFF" stroke-linecap="round" stroke-linejoin="round"/>
</svg>
